<svg width="15" height="10" viewBox="0 0 15 10" fill="none" xmlns="http://www.w3.org/2000/svg">
<path d="M14.7957 4.52221L10.332 0.197879C10.0596 -0.0659596 9.61792 -0.0659596 9.34558 0.197879C9.07318 0.461771 9.07318 0.889555 9.34558 1.15345L12.6187 4.32432H0.69746C0.312295 4.32432 0 4.62686 0 4.99999C0 5.37307 0.312295 5.67567 0.69746 5.67567H12.6187L9.34569 8.84654C9.07329 9.11043 9.07329 9.53822 9.34569 9.80211C9.48183 9.93395 9.66038 10 9.83888 10C10.0174 10 10.1959 9.93395 10.3321 9.80211L14.7957 5.47778C15.0681 5.21389 15.0681 4.7861 14.7957 4.52221Z" fill="white"/>
</svg>
