<svg width="914" height="496" viewBox="0 0 914 496" fill="none" xmlns="http://www.w3.org/2000/svg">
<mask id="mask0" mask-type="alpha" maskUnits="userSpaceOnUse" x="0" y="0" width="914" height="496">
<rect width="914" height="496" rx="10" fill="#EBF6FF"/>
<rect width="914" height="496" rx="10" fill="url(#paint0_radial)"/>
</mask>
<g mask="url(#mask0)">
<rect width="914" height="496" fill="#F2FBFF"/>
<g opacity="0.4">
<path d="M770.997 452.31C774.653 455.97 774.649 461.909 770.988 465.564L745.387 491.132C741.734 494.78 735.792 494.78 732.136 491.12L706.569 465.519C702.906 461.852 702.913 455.909 706.566 452.261L732.167 426.693C735.828 423.037 741.766 423.041 745.429 426.709L770.997 452.31Z" fill="#E3ECF2"/>
<path d="M814.373 408.989C818.029 412.65 818.025 418.588 814.368 422.24L788.764 447.811C785.103 451.467 779.161 451.467 775.506 447.806L749.938 422.205C746.275 418.538 746.282 412.595 749.943 408.939L775.547 383.369C779.204 379.717 785.142 379.72 788.805 383.389L814.373 408.989Z" fill="#E3ECF2"/>
<path d="M814.083 495.458C817.742 499.121 817.739 505.06 814.078 508.716L788.477 534.284C784.824 537.932 778.882 537.932 775.223 534.267L749.663 508.675C746.004 505.011 746.011 499.068 749.664 495.42L775.265 469.852C778.925 466.196 784.863 466.2 788.523 469.865L814.083 495.458Z" fill="#E3ECF2"/>
<path d="M857.459 452.132C861.118 455.796 861.115 461.735 857.458 465.387L831.854 490.957C828.193 494.613 822.251 494.613 818.592 490.949L793.032 465.356C789.373 461.692 789.38 455.75 793.041 452.094L818.645 426.523C822.301 422.871 828.24 422.875 831.899 426.539L857.459 452.132Z" fill="#E3ECF2"/>
<path d="M899.759 408.405C903.414 412.065 903.403 418.004 899.739 421.664L874.146 447.224C870.482 450.883 864.538 450.89 860.883 447.231L792.973 379.232C789.311 375.565 789.321 369.619 792.986 365.959L818.579 340.399C822.243 336.74 828.185 336.739 831.849 340.407L899.759 408.405Z" fill="#E3ECF2"/>
<path d="M745.023 446.259L738.784 452.49L732.546 446.244C732.099 445.796 731.366 445.795 730.918 446.243L726.124 451.031C725.668 451.486 725.671 452.215 726.119 452.663L732.356 458.909L726.11 465.148C725.658 465.599 725.657 466.324 726.109 466.776L730.896 471.57C731.352 472.026 732.077 472.027 732.529 471.575L738.776 465.337L745.014 471.583C745.458 472.028 746.191 472.036 746.647 471.581L751.441 466.793C751.889 466.345 751.886 465.608 751.442 465.164L745.203 458.917L751.442 452.686C751.895 452.235 751.903 451.502 751.447 451.046L746.66 446.252C746.208 445.8 745.475 445.807 745.023 446.259Z" fill="#F2FBFF"/>
<path d="M786.631 497.738L786.637 488.912C786.626 488.279 786.112 487.765 785.486 487.76L778.704 487.755C778.071 487.751 777.549 488.273 777.555 488.903L777.546 497.733L768.719 497.728C768.078 497.731 767.571 498.238 767.566 498.879L767.562 505.661C767.565 506.286 768.08 506.802 768.713 506.813L777.543 506.815L777.537 515.649C777.537 516.271 778.055 516.79 778.684 516.798L785.466 516.802C786.103 516.795 786.611 516.288 786.619 515.651L786.632 506.817L795.455 506.827C796.081 506.83 796.603 506.309 796.603 505.68L796.608 498.897C796.601 498.268 796.083 497.75 795.461 497.749L786.631 497.738Z" fill="#F2FBFF"/>
<path d="M788.404 402.934L769.487 421.827C769.027 422.286 769.026 423.011 769.478 423.463L774.266 428.257C774.721 428.713 775.446 428.714 775.906 428.254L794.823 409.362C795.279 408.906 795.272 408.189 794.817 407.733L790.029 402.939C789.577 402.487 788.859 402.479 788.404 402.934Z" fill="#F2FBFF"/>
<path d="M847.347 374.252L852.135 379.046C852.583 379.495 852.589 380.22 852.134 380.675L833.224 399.56C832.772 400.012 832.043 400.007 831.596 399.559L826.808 394.765C826.356 394.313 826.357 393.588 826.809 393.136L845.718 374.251C846.174 373.797 846.896 373.8 847.347 374.252ZM855.981 384.529L837.072 403.414C836.62 403.865 836.615 404.587 837.064 405.036L841.863 409.841C842.311 410.29 843.036 410.29 843.488 409.838L862.398 390.953C862.853 390.498 862.85 389.777 862.402 389.328L857.603 384.523C857.156 384.074 856.437 384.073 855.981 384.529Z" fill="#F2FBFF"/>
<path d="M821.839 473.269C821.211 473.261 820.685 472.735 820.682 472.11L820.717 445.367C820.711 444.737 821.23 444.22 821.866 444.22L828.649 444.225C829.282 444.222 829.796 444.736 829.792 445.37L829.786 472.113C829.778 472.742 829.252 473.268 828.637 473.26L821.839 473.269Z" fill="#F2FBFF"/>
</g>
<g opacity="0.4">
<path d="M701.581 534.769C697.923 538.427 691.985 538.427 688.326 534.769L662.742 509.184C659.092 505.534 659.088 499.592 662.746 495.934L688.33 470.35C691.995 466.685 697.938 466.688 701.588 470.338L727.173 495.922C730.831 499.581 730.831 505.519 727.165 509.185L701.581 534.769Z" fill="#E3ECF2"/>
<path d="M707.614 508.791L701.379 502.556L707.621 496.314C708.069 495.866 708.069 495.134 707.621 494.686L702.83 489.895C702.375 489.439 701.646 489.443 701.198 489.891L694.956 496.133L688.713 489.89C688.261 489.438 687.536 489.438 687.084 489.89L682.294 494.681C681.838 495.137 681.838 495.862 682.29 496.313L688.532 502.556L682.29 508.799C681.846 509.243 681.838 509.976 682.294 510.431L687.085 515.222C687.533 515.67 688.269 515.666 688.713 515.222L694.956 508.98L701.191 515.215C701.643 515.667 702.376 515.674 702.831 515.219L707.622 510.428C708.074 509.976 708.066 509.243 707.614 508.791Z" fill="#F2FBFF"/>
</g>
<g opacity="0.4">
<path d="M918.495 319.054C914.837 322.712 908.899 322.712 905.241 319.054L879.656 293.47C876.006 289.819 876.002 283.877 879.66 280.219L905.244 254.635C908.909 250.97 914.852 250.973 918.502 254.624L944.087 280.208C947.745 283.866 947.745 289.804 944.079 293.47L918.495 319.054Z" fill="#E3ECF2"/>
<path d="M875.381 362.169C871.719 365.83 865.78 365.831 862.122 362.172L836.538 336.588C832.887 332.937 832.883 326.996 836.545 323.334L862.122 297.757C865.783 294.096 871.726 294.099 875.376 297.75L900.961 323.334C904.619 326.992 904.619 332.93 900.957 336.592L875.381 362.169Z" fill="#E3ECF2"/>
<path d="M918.728 405.517C915.067 409.178 909.128 409.179 905.474 405.524L879.886 379.937C876.228 376.279 876.224 370.337 879.886 366.675L905.463 341.098C909.124 337.437 915.067 337.44 918.725 341.099L944.312 366.686C947.967 370.34 947.967 376.278 944.305 379.94L918.728 405.517Z" fill="#E3ECF2"/>
<path d="M924.529 293.076L918.294 286.841L924.535 280.6C924.983 280.152 924.983 279.419 924.535 278.971L919.744 274.18C919.289 273.724 918.56 273.728 918.112 274.176L911.87 280.418L905.627 274.175C905.175 273.723 904.45 273.723 903.999 274.175L899.208 278.966C898.752 279.422 898.752 280.147 899.204 280.599L905.446 286.841L899.204 293.084C898.76 293.528 898.752 294.261 899.208 294.716L903.999 299.507C904.447 299.955 905.183 299.952 905.627 299.507L911.87 293.265L918.105 299.5C918.557 299.952 919.29 299.959 919.745 299.504L924.536 294.713C924.988 294.261 924.98 293.528 924.529 293.076Z" fill="#F2FBFF"/>
<path d="M873.075 334.719L881.901 334.719C882.534 334.707 883.049 334.193 883.053 333.567L883.053 326.785C883.057 326.152 882.535 325.63 881.905 325.637L873.075 325.633L873.074 316.806C873.07 316.166 872.564 315.659 871.923 315.654L865.14 315.654C864.515 315.658 864 316.173 863.989 316.806L863.992 325.636L855.159 325.636C854.537 325.637 854.018 326.155 854.011 326.784L854.011 333.566C854.018 334.203 854.526 334.71 855.162 334.718L863.996 334.726L863.992 343.548C863.989 344.174 864.512 344.696 865.14 344.696L871.923 344.696C872.552 344.688 873.07 344.17 873.071 343.548L873.075 334.719Z" fill="#F2FBFF"/>
<path d="M897.567 369.91C897.575 369.281 898.101 368.755 898.726 368.751L925.469 368.77C926.098 368.763 926.617 369.281 926.617 369.918L926.616 376.701C926.62 377.333 926.105 377.848 925.472 377.845L898.729 377.855C898.099 377.848 897.573 377.323 897.581 376.707L897.567 369.91Z" fill="#F2FBFF"/>
</g>
<g opacity="0.4">
<path d="M917.895 489.229C914.237 492.887 908.299 492.887 904.641 489.229L879.057 463.645C875.406 459.994 875.402 454.052 879.06 450.394L904.644 424.81C908.31 421.145 914.252 421.148 917.903 424.798L943.487 450.383C947.145 454.041 947.145 459.979 943.479 463.645L917.895 489.229Z" fill="#E3ECF2"/>
<path d="M874.781 532.344C871.12 536.005 865.181 536.006 861.523 532.347L835.938 506.763C832.288 503.113 832.284 497.171 835.946 493.509L861.522 467.932C865.184 464.271 871.126 464.274 874.777 467.925L900.361 493.509C904.019 497.167 904.019 503.105 900.357 506.767L874.781 532.344Z" fill="#E3ECF2"/>
<path d="M923.929 463.251L917.694 457.016L923.936 450.775C924.384 450.327 924.384 449.594 923.936 449.146L919.145 444.355C918.689 443.899 917.96 443.903 917.512 444.351L911.27 450.593L905.028 444.35C904.576 443.898 903.851 443.898 903.399 444.35L898.608 449.141C898.152 449.597 898.152 450.322 898.604 450.774L904.847 457.016L898.604 463.259C898.16 463.703 898.152 464.436 898.608 464.892L903.399 469.682C903.847 470.13 904.584 470.127 905.028 469.682L911.27 463.44L917.505 469.675C917.957 470.127 918.69 470.134 919.146 469.679L923.937 464.888C924.388 464.436 924.381 463.703 923.929 463.251Z" fill="#F2FBFF"/>
<path d="M872.476 504.894L881.303 504.894C881.935 504.882 882.45 504.368 882.454 503.742L882.454 496.96C882.458 496.327 881.936 495.805 881.306 495.812L872.476 495.808L872.476 486.981C872.472 486.341 871.965 485.834 871.324 485.829L864.542 485.829C863.917 485.833 863.401 486.348 863.39 486.981L863.394 495.811L854.56 495.811C853.938 495.812 853.42 496.33 853.412 496.959L853.412 503.741C853.42 504.378 853.927 504.885 854.564 504.893L863.398 504.901L863.394 513.723C863.391 514.349 863.913 514.871 864.542 514.871L871.324 514.871C871.953 514.863 872.471 514.345 872.472 513.723L872.476 504.894Z" fill="#F2FBFF"/>
</g>
</g>
<defs>
<radialGradient id="paint0_radial" cx="0" cy="0" r="1" gradientUnits="userSpaceOnUse" gradientTransform="translate(469.06 -6.78111) rotate(45.7563) scale(750.519 2278.08)">
<stop stop-color="white" stop-opacity="0.62"/>
<stop offset="1" stop-color="white" stop-opacity="0"/>
</radialGradient>
</defs>
</svg>
