<svg width="48" height="41" viewBox="0 0 48 41" fill="none" xmlns="http://www.w3.org/2000/svg">
<path d="M15.3628 18.1671C14.1805 17.8267 12.9983 17.654 11.8483 17.654C10.0725 17.654 8.59064 18.0599 7.44165 18.5568C8.54935 14.5016 11.2104 7.5043 16.5113 6.71631C17.0022 6.6433 17.4045 6.28833 17.5384 5.8105L18.697 1.66662C18.7946 1.31617 18.7367 0.941059 18.5369 0.636939C18.337 0.33282 18.0157 0.129905 17.6557 0.0805614C17.2645 0.0271894 16.8657 0 16.4705 0C10.1077 0 3.80635 6.64128 1.14734 16.1506C-0.413518 21.7294 -0.871203 30.1169 2.97355 35.3962C5.12502 38.3503 8.26387 39.9278 12.303 40.0854C12.3196 40.0859 12.3357 40.0864 12.3523 40.0864C17.336 40.0864 21.7553 36.73 23.0996 31.925C23.9027 29.0525 23.5397 26.04 22.0765 23.4404C20.6289 20.87 18.2448 18.9964 15.3628 18.1671Z" fill="#00436B"/>
<path d="M46.5591 23.4409C45.1115 20.87 42.7274 18.9964 39.8454 18.1671C38.6632 17.8267 37.4809 17.654 36.3314 17.654C34.5556 17.654 33.0732 18.0599 31.9243 18.5568C33.032 14.5016 35.693 7.5043 40.9944 6.71631C41.4853 6.6433 41.8871 6.28833 42.0215 5.8105L43.1801 1.66662C43.2778 1.31617 43.2199 0.941059 43.02 0.636939C42.8206 0.33282 42.4993 0.129905 42.1388 0.0805614C41.7481 0.0271894 41.3493 0 40.9536 0C34.5908 0 28.2895 6.64128 25.63 16.1506C24.0696 21.7294 23.6119 30.1169 27.4572 35.3972C29.6081 38.3508 32.7475 39.9288 36.7861 40.0859C36.8027 40.0864 36.8188 40.0869 36.8359 40.0869C41.8191 40.0869 46.2389 36.7305 47.5832 31.9255C48.3853 29.053 48.0218 26.04 46.5591 23.4409Z" fill="#00436B"/>
</svg>
