<svg width="18" height="20" viewBox="0 0 18 20" fill="none" xmlns="http://www.w3.org/2000/svg">
<path d="M17.5891 3.28132C17.3154 2.99858 16.9906 2.85719 16.6156 2.85719H15.2311V1.78573C15.2311 1.29475 15.0615 0.874334 14.7226 0.524632C14.3835 0.174929 13.9762 0 13.5001 0H12.808C12.3319 0 11.9245 0.174929 11.5856 0.524671C11.2465 0.874334 11.077 1.29479 11.077 1.78577V2.85723H6.92335V1.78577C6.92335 1.29479 6.7538 0.874373 6.41481 0.524671C6.0759 0.174929 5.66845 0 5.19239 0H4.50013C4.02418 0 3.61669 0.174929 3.27771 0.524671C2.9388 0.874334 2.76921 1.29479 2.76921 1.78577V2.85723H1.3847C1.00961 2.85723 0.685132 2.99862 0.411087 3.28136C0.137042 3.56406 0 3.89899 0 4.28587V18.5716C0 18.9582 0.137042 19.293 0.411087 19.5759C0.685094 19.8586 1.00957 20 1.3847 20H16.6153C16.9903 20 17.3151 19.8586 17.5888 19.5759C17.8629 19.2931 18 18.9581 18 18.5716V4.28583C18 3.89883 17.863 3.56406 17.5891 3.28132ZM12.4618 1.78588C12.4618 1.68163 12.494 1.59598 12.5588 1.52918C12.6237 1.46229 12.7066 1.42879 12.8078 1.42879H13.4999C13.6011 1.42879 13.6838 1.46218 13.7488 1.52918C13.8137 1.5961 13.8461 1.68175 13.8461 1.78588V5.00005C13.8461 5.10426 13.8137 5.18975 13.7488 5.25676C13.6837 5.32356 13.6011 5.35714 13.4999 5.35714H12.8078C12.7066 5.35714 12.6237 5.32372 12.5588 5.25676C12.494 5.18972 12.4618 5.10426 12.4618 5.00005V1.78588ZM4.15402 1.78588C4.15402 1.68163 4.18642 1.59598 4.25132 1.52918C4.31626 1.46229 4.39912 1.42879 4.50013 1.42879H5.19239C5.29344 1.42879 5.37645 1.46218 5.4412 1.52918C5.50603 1.5961 5.53857 1.68175 5.53857 1.78588V5.00005C5.53857 5.10426 5.50618 5.18987 5.4412 5.25676C5.3763 5.32356 5.29344 5.35714 5.19239 5.35714H4.50013C4.39912 5.35714 4.31615 5.32372 4.25132 5.25676C4.18657 5.18972 4.15402 5.10426 4.15402 5.00005V1.78588ZM16.6153 18.5714H1.3847V7.1429H16.6153V18.5714Z" fill="#698190"/>
</svg>
