<svg width="55" height="40" viewBox="0 0 55 40" fill="none" xmlns="http://www.w3.org/2000/svg">
<path d="M53.1587 13.3045H53.0994V3.7419C53.0994 1.67863 51.4207 0 49.3575 0H3.7419C1.67863 0 0 1.67863 0 3.7419V36.0529C0 38.1162 1.67863 39.7948 3.7419 39.7948H49.3575C51.4207 39.7948 53.0994 38.1162 53.0994 36.0529V26.4903H53.1587C54.174 26.4903 55 25.6643 55 24.649V15.1458C55 14.1305 54.174 13.3045 53.1587 13.3045ZM51.3175 36.0529C51.3175 37.1337 50.4382 38.013 49.3575 38.013H3.7419C2.66114 38.013 1.78186 37.1337 1.78186 36.0529V35.9936H3.74261C4.23464 35.9936 4.63354 35.5949 4.63354 35.1027C4.63354 34.6106 4.23464 34.2118 3.74261 34.2118H1.78186V5.58315H3.7419C4.23393 5.58315 4.63283 5.18437 4.63283 4.69222C4.63283 4.20008 4.23393 3.8013 3.7419 3.8013H1.78186V3.7419C1.78186 2.66114 2.66114 1.78186 3.7419 1.78186H49.3575C50.4382 1.78186 51.3175 2.66114 51.3175 3.7419V13.3045H39.8542C36.2189 13.3045 33.2613 16.2621 33.2613 19.8974C33.2613 23.5328 36.2189 26.4903 39.8542 26.4903H51.3175V36.0529ZM53.2181 24.649C53.2181 24.6817 53.1915 24.7084 53.1587 24.7084H52.2107C52.2099 24.7084 52.2091 24.7083 52.2084 24.7083C52.2077 24.7083 52.2069 24.7084 52.2062 24.7084H39.8542C37.2014 24.7084 35.0432 22.5502 35.0432 19.8974C35.0432 17.2446 37.2014 15.0864 39.8542 15.0864H52.2038C52.2053 15.0864 52.2069 15.0866 52.2084 15.0866C52.21 15.0866 52.2115 15.0864 52.2131 15.0864H53.1587C53.1915 15.0864 53.2181 15.1131 53.2181 15.1458V24.649Z" fill="white"/>
<path d="M39.8541 17.1058C38.3148 17.1058 37.0625 18.3581 37.0625 19.8974C37.0625 21.4367 38.3148 22.689 39.8541 22.689C41.3934 22.689 42.6457 21.4367 42.6457 19.8974C42.6457 18.3581 41.3934 17.1058 39.8541 17.1058ZM39.8541 20.9071C39.2973 20.9071 38.8444 20.4542 38.8444 19.8974C38.8444 19.3406 39.2973 18.8877 39.8541 18.8877C40.4108 18.8877 40.8638 19.3406 40.8638 19.8974C40.8638 20.4542 40.4108 20.9071 39.8541 20.9071Z" fill="white"/>
<path d="M7.54327 5.58316H10.3942C10.8863 5.58316 11.2852 5.18438 11.2852 4.69223C11.2852 4.20008 10.8863 3.8013 10.3942 3.8013H7.54327C7.05124 3.8013 6.65234 4.20008 6.65234 4.69223C6.65234 5.18438 7.05124 5.58316 7.54327 5.58316Z" fill="white"/>
<path d="M14.1956 5.58316H17.0466C17.5386 5.58316 17.9375 5.18438 17.9375 4.69223C17.9375 4.20008 17.5386 3.8013 17.0466 3.8013H14.1956C13.7036 3.8013 13.3047 4.20008 13.3047 4.69223C13.3047 5.18438 13.7036 5.58316 14.1956 5.58316Z" fill="white"/>
<path d="M20.848 5.58316H23.6989C24.191 5.58316 24.5899 5.18438 24.5899 4.69223C24.5899 4.20008 24.191 3.8013 23.6989 3.8013H20.848C20.3559 3.8013 19.957 4.20008 19.957 4.69223C19.957 5.18438 20.3559 5.58316 20.848 5.58316Z" fill="white"/>
<path d="M27.5003 5.58316H30.3513C30.8433 5.58316 31.2422 5.18438 31.2422 4.69223C31.2422 4.20008 30.8433 3.8013 30.3513 3.8013H27.5003C27.0083 3.8013 26.6094 4.20008 26.6094 4.69223C26.6094 5.18438 27.0083 5.58316 27.5003 5.58316Z" fill="white"/>
<path d="M34.1526 5.58316H37.0036C37.4956 5.58316 37.8945 5.18438 37.8945 4.69223C37.8945 4.20008 37.4956 3.8013 37.0036 3.8013H34.1526C33.6606 3.8013 33.2617 4.20008 33.2617 4.69223C33.2617 5.18438 33.6606 5.58316 34.1526 5.58316Z" fill="white"/>
<path d="M40.805 5.58316H43.656C44.148 5.58316 44.5469 5.18438 44.5469 4.69223C44.5469 4.20008 44.148 3.8013 43.656 3.8013H40.805C40.313 3.8013 39.9141 4.20008 39.9141 4.69223C39.9141 5.18438 40.313 5.58316 40.805 5.58316Z" fill="white"/>
<path d="M47.4573 5.58316H47.5167V5.64255C47.5167 6.1347 47.9156 6.53348 48.4077 6.53348C48.8997 6.53348 49.2986 6.1347 49.2986 5.64255V4.69223C49.2986 4.20008 48.8997 3.8013 48.4077 3.8013H47.4573C46.9653 3.8013 46.5664 4.20008 46.5664 4.69223C46.5664 5.18438 46.9653 5.58316 47.4573 5.58316Z" fill="white"/>
<path d="M48.4066 8.55292C47.9145 8.55292 47.5156 8.9517 47.5156 9.44385V11.3445C47.5156 11.8366 47.9145 12.2354 48.4066 12.2354C48.8986 12.2354 49.2975 11.8366 49.2975 11.3445V9.44385C49.2975 8.9517 48.8986 8.55292 48.4066 8.55292Z" fill="white"/>
<path d="M10.3942 34.2118H7.54327C7.05124 34.2118 6.65234 34.6106 6.65234 35.1027C6.65234 35.5949 7.05124 35.9936 7.54327 35.9936H10.3942C10.8863 35.9936 11.2852 35.5949 11.2852 35.1027C11.2852 34.6106 10.8863 34.2118 10.3942 34.2118Z" fill="white"/>
<path d="M17.0466 34.2118H14.1956C13.7036 34.2118 13.3047 34.6106 13.3047 35.1027C13.3047 35.5949 13.7036 35.9936 14.1956 35.9936H17.0466C17.5386 35.9936 17.9375 35.5949 17.9375 35.1027C17.9375 34.6106 17.5386 34.2118 17.0466 34.2118Z" fill="white"/>
<path d="M23.6989 34.2118H20.848C20.3559 34.2118 19.957 34.6106 19.957 35.1027C19.957 35.5949 20.3559 35.9936 20.848 35.9936H23.6989C24.191 35.9936 24.5899 35.5949 24.5899 35.1027C24.5899 34.6106 24.191 34.2118 23.6989 34.2118Z" fill="white"/>
<path d="M30.3513 34.2118H27.5003C27.0083 34.2118 26.6094 34.6106 26.6094 35.1027C26.6094 35.5949 27.0083 35.9936 27.5003 35.9936H30.3513C30.8433 35.9936 31.2422 35.5949 31.2422 35.1027C31.2422 34.6106 30.8433 34.2118 30.3513 34.2118Z" fill="white"/>
<path d="M37.0036 34.2118H34.1526C33.6606 34.2118 33.2617 34.6106 33.2617 35.1027C33.2617 35.5949 33.6606 35.9936 34.1526 35.9936H37.0036C37.4957 35.9936 37.8946 35.5949 37.8946 35.1027C37.8946 34.6106 37.4957 34.2118 37.0036 34.2118Z" fill="white"/>
<path d="M40.805 35.9936H43.656C44.148 35.9936 44.5469 35.5949 44.5469 35.1027C44.5469 34.6106 44.148 34.2118 43.656 34.2118H40.805C40.313 34.2118 39.9141 34.6106 39.9141 35.1027C39.9141 35.5949 40.313 35.9936 40.805 35.9936Z" fill="white"/>
<path d="M47.4573 35.9936H48.4077C48.8997 35.9936 49.2986 35.5949 49.2986 35.1027V34.1524C49.2986 33.6602 48.8997 33.2615 48.4077 33.2615C47.9156 33.2615 47.5167 33.6602 47.5167 34.1524V34.2118H47.4573C46.9653 34.2118 46.5664 34.6106 46.5664 35.1027C46.5664 35.5949 46.9653 35.9936 47.4573 35.9936Z" fill="white"/>
<path d="M48.4075 31.242C48.8996 31.242 49.2985 30.8432 49.2985 30.3511V28.4504C49.2985 27.9583 48.8996 27.5595 48.4075 27.5595C47.9155 27.5595 47.5166 27.9583 47.5166 28.4504V30.3511C47.5166 30.8432 47.9155 31.242 48.4075 31.242Z" fill="white"/>
</svg>
