<svg width="55" height="41" viewBox="0 0 55 41" fill="none" xmlns="http://www.w3.org/2000/svg">
<path d="M53.1587 14.3026H53.0994V4.73995C53.0994 2.67668 51.4207 0.998047 49.3575 0.998047H3.7419C1.67863 0.998047 0 2.67668 0 4.73995V37.051C0 39.1142 1.67863 40.7929 3.7419 40.7929H49.3575C51.4207 40.7929 53.0994 39.1142 53.0994 37.051V27.4883H53.1587C54.174 27.4883 55 26.6624 55 25.6471V16.1438C55 15.1285 54.174 14.3026 53.1587 14.3026ZM51.3175 37.051C51.3175 38.1317 50.4382 39.011 49.3575 39.011H3.7419C2.66114 39.011 1.78186 38.1317 1.78186 37.051V36.9917H3.74261C4.23464 36.9917 4.63354 36.5929 4.63354 36.1008C4.63354 35.6086 4.23464 35.2098 3.74261 35.2098H1.78186V6.5812H3.7419C4.23393 6.5812 4.63283 6.18242 4.63283 5.69027C4.63283 5.19812 4.23393 4.79934 3.7419 4.79934H1.78186V4.73995C1.78186 3.65919 2.66114 2.7799 3.7419 2.7799H49.3575C50.4382 2.7799 51.3175 3.65919 51.3175 4.73995V14.3026H39.8542C36.2189 14.3026 33.2613 17.2601 33.2613 20.8955C33.2613 24.5308 36.2189 27.4883 39.8542 27.4883H51.3175V37.051ZM53.2181 25.6471C53.2181 25.6797 53.1915 25.7065 53.1587 25.7065H52.2107C52.2099 25.7065 52.2091 25.7064 52.2084 25.7064C52.2077 25.7064 52.2069 25.7065 52.2062 25.7065H39.8542C37.2014 25.7065 35.0432 23.5483 35.0432 20.8955C35.0432 18.2426 37.2014 16.0844 39.8542 16.0844H52.2038C52.2053 16.0844 52.2069 16.0847 52.2084 16.0847C52.21 16.0847 52.2115 16.0844 52.2131 16.0844H53.1587C53.1915 16.0844 53.2181 16.1112 53.2181 16.1438V25.6471Z" fill="url(#paint0_linear)"/>
<path d="M39.8543 18.104C38.315 18.104 37.0627 19.3563 37.0627 20.8956C37.0627 22.4349 38.315 23.6872 39.8543 23.6872C41.3936 23.6872 42.6459 22.4349 42.6459 20.8956C42.6459 19.3563 41.3936 18.104 39.8543 18.104ZM39.8543 21.9053C39.2976 21.9053 38.8446 21.4524 38.8446 20.8956C38.8446 20.3388 39.2976 19.8859 39.8543 19.8859C40.4111 19.8859 40.864 20.3388 40.864 20.8956C40.864 21.4524 40.4111 21.9053 39.8543 21.9053Z" fill="url(#paint1_linear)"/>
<path d="M7.54327 6.58117H10.3942C10.8863 6.58117 11.2852 6.18239 11.2852 5.69024C11.2852 5.1981 10.8863 4.79932 10.3942 4.79932H7.54327C7.05124 4.79932 6.65234 5.1981 6.65234 5.69024C6.65234 6.18239 7.05124 6.58117 7.54327 6.58117Z" fill="url(#paint2_linear)"/>
<path d="M14.1954 6.58117H17.0463C17.5384 6.58117 17.9373 6.18239 17.9373 5.69024C17.9373 5.1981 17.5384 4.79932 17.0463 4.79932H14.1954C13.7033 4.79932 13.3044 5.1981 13.3044 5.69024C13.3044 6.18239 13.7033 6.58117 14.1954 6.58117Z" fill="url(#paint3_linear)"/>
<path d="M20.8477 6.58117H23.6987C24.1907 6.58117 24.5896 6.18239 24.5896 5.69024C24.5896 5.1981 24.1907 4.79932 23.6987 4.79932H20.8477C20.3557 4.79932 19.9568 5.1981 19.9568 5.69024C19.9568 6.18239 20.3557 6.58117 20.8477 6.58117Z" fill="url(#paint4_linear)"/>
<path d="M27.5001 6.58117H30.351C30.8431 6.58117 31.242 6.18239 31.242 5.69024C31.242 5.1981 30.8431 4.79932 30.351 4.79932H27.5001C27.008 4.79932 26.6091 5.1981 26.6091 5.69024C26.6091 6.18239 27.008 6.58117 27.5001 6.58117Z" fill="url(#paint5_linear)"/>
<path d="M34.1522 6.58117H37.0031C37.4952 6.58117 37.8941 6.18239 37.8941 5.69024C37.8941 5.1981 37.4952 4.79932 37.0031 4.79932H34.1522C33.6601 4.79932 33.2612 5.1981 33.2612 5.69024C33.2612 6.18239 33.6601 6.58117 34.1522 6.58117Z" fill="url(#paint6_linear)"/>
<path d="M40.8045 6.58117H43.6555C44.1475 6.58117 44.5464 6.18239 44.5464 5.69024C44.5464 5.1981 44.1475 4.79932 43.6555 4.79932H40.8045C40.3125 4.79932 39.9136 5.1981 39.9136 5.69024C39.9136 6.18239 40.3125 6.58117 40.8045 6.58117Z" fill="url(#paint7_linear)"/>
<path d="M47.4568 6.58117H47.5162V6.64057C47.5162 7.13272 47.9151 7.5315 48.4072 7.5315C48.8992 7.5315 49.2981 7.13272 49.2981 6.64057V5.69024C49.2981 5.1981 48.8992 4.79932 48.4072 4.79932H47.4568C46.9648 4.79932 46.5659 5.1981 46.5659 5.69024C46.5659 6.18239 46.9648 6.58117 47.4568 6.58117Z" fill="url(#paint8_linear)"/>
<path d="M48.407 9.55078C47.915 9.55078 47.5161 9.94956 47.5161 10.4417V12.3424C47.5161 12.8345 47.915 13.2333 48.407 13.2333C48.8991 13.2333 49.298 12.8345 49.298 12.3424V10.4417C49.298 9.94956 48.8991 9.55078 48.407 9.55078Z" fill="url(#paint9_linear)"/>
<path d="M10.3947 35.21H7.54376C7.05173 35.21 6.65283 35.6087 6.65283 36.1009C6.65283 36.593 7.05173 36.9918 7.54376 36.9918H10.3947C10.8868 36.9918 11.2857 36.593 11.2857 36.1009C11.2857 35.6087 10.8868 35.21 10.3947 35.21Z" fill="url(#paint10_linear)"/>
<path d="M17.0471 35.21H14.1961C13.7041 35.21 13.3052 35.6087 13.3052 36.1009C13.3052 36.593 13.7041 36.9918 14.1961 36.9918H17.0471C17.5391 36.9918 17.938 36.593 17.938 36.1009C17.938 35.6087 17.5391 35.21 17.0471 35.21Z" fill="url(#paint11_linear)"/>
<path d="M23.6994 35.21H20.8484C20.3564 35.21 19.9575 35.6087 19.9575 36.1009C19.9575 36.593 20.3564 36.9918 20.8484 36.9918H23.6994C24.1914 36.9918 24.5903 36.593 24.5903 36.1009C24.5903 35.6087 24.1914 35.21 23.6994 35.21Z" fill="url(#paint12_linear)"/>
<path d="M30.3518 35.21H27.5008C27.0088 35.21 26.6099 35.6087 26.6099 36.1009C26.6099 36.593 27.0088 36.9918 27.5008 36.9918H30.3518C30.8438 36.9918 31.2427 36.593 31.2427 36.1009C31.2427 35.6087 30.8438 35.21 30.3518 35.21Z" fill="url(#paint13_linear)"/>
<path d="M37.0039 35.21H34.1529C33.6609 35.21 33.262 35.6087 33.262 36.1009C33.262 36.593 33.6609 36.9918 34.1529 36.9918H37.0039C37.4959 36.9918 37.8948 36.593 37.8948 36.1009C37.8948 35.6087 37.4959 35.21 37.0039 35.21Z" fill="url(#paint14_linear)"/>
<path d="M40.8052 36.9918H43.6562C44.1482 36.9918 44.5471 36.593 44.5471 36.1009C44.5471 35.6087 44.1482 35.21 43.6562 35.21H40.8052C40.3132 35.21 39.9143 35.6087 39.9143 36.1009C39.9143 36.593 40.3132 36.9918 40.8052 36.9918Z" fill="url(#paint15_linear)"/>
<path d="M47.4576 36.9915H48.4079C48.8999 36.9915 49.2988 36.5927 49.2988 36.1005V35.1502C49.2988 34.6581 48.8999 34.2593 48.4079 34.2593C47.9159 34.2593 47.517 34.6581 47.517 35.1502V35.2096H47.4576C46.9655 35.2096 46.5667 35.6084 46.5667 36.1005C46.5667 36.5927 46.9655 36.9915 47.4576 36.9915Z" fill="url(#paint16_linear)"/>
<path d="M48.4078 32.2401C48.8998 32.2401 49.2987 31.8413 49.2987 31.3492V29.4485C49.2987 28.9564 48.8998 28.5576 48.4078 28.5576C47.9157 28.5576 47.5168 28.9564 47.5168 29.4485V31.3492C47.5168 31.8413 47.9157 32.2401 48.4078 32.2401Z" fill="url(#paint17_linear)"/>
<defs>
<linearGradient id="paint0_linear" x1="55" y1="6.96728" x2="-1.89352" y2="10.5267" gradientUnits="userSpaceOnUse">
<stop stop-color="#0097F6"/>
<stop offset="1" stop-color="#3940DC"/>
</linearGradient>
<linearGradient id="paint1_linear" x1="42.6459" y1="18.9415" x2="36.8598" y2="19.2034" gradientUnits="userSpaceOnUse">
<stop stop-color="#0097F6"/>
<stop offset="1" stop-color="#3940DC"/>
</linearGradient>
<linearGradient id="paint2_linear" x1="11.2852" y1="5.0666" x2="6.53982" y2="5.62509" gradientUnits="userSpaceOnUse">
<stop stop-color="#0097F6"/>
<stop offset="1" stop-color="#3940DC"/>
</linearGradient>
<linearGradient id="paint3_linear" x1="17.9373" y1="5.0666" x2="13.1919" y2="5.62509" gradientUnits="userSpaceOnUse">
<stop stop-color="#0097F6"/>
<stop offset="1" stop-color="#3940DC"/>
</linearGradient>
<linearGradient id="paint4_linear" x1="24.5896" y1="5.0666" x2="19.8443" y2="5.62509" gradientUnits="userSpaceOnUse">
<stop stop-color="#0097F6"/>
<stop offset="1" stop-color="#3940DC"/>
</linearGradient>
<linearGradient id="paint5_linear" x1="31.242" y1="5.0666" x2="26.4966" y2="5.62509" gradientUnits="userSpaceOnUse">
<stop stop-color="#0097F6"/>
<stop offset="1" stop-color="#3940DC"/>
</linearGradient>
<linearGradient id="paint6_linear" x1="37.8941" y1="5.0666" x2="33.1487" y2="5.62509" gradientUnits="userSpaceOnUse">
<stop stop-color="#0097F6"/>
<stop offset="1" stop-color="#3940DC"/>
</linearGradient>
<linearGradient id="paint7_linear" x1="44.5464" y1="5.0666" x2="39.8011" y2="5.62509" gradientUnits="userSpaceOnUse">
<stop stop-color="#0097F6"/>
<stop offset="1" stop-color="#3940DC"/>
</linearGradient>
<linearGradient id="paint8_linear" x1="49.2981" y1="5.20914" x2="46.4666" y2="5.33732" gradientUnits="userSpaceOnUse">
<stop stop-color="#0097F6"/>
<stop offset="1" stop-color="#3940DC"/>
</linearGradient>
<linearGradient id="paint9_linear" x1="49.298" y1="10.1032" x2="47.4484" y2="10.1437" gradientUnits="userSpaceOnUse">
<stop stop-color="#0097F6"/>
<stop offset="1" stop-color="#3940DC"/>
</linearGradient>
<linearGradient id="paint10_linear" x1="11.2857" y1="35.4772" x2="6.54031" y2="36.0357" gradientUnits="userSpaceOnUse">
<stop stop-color="#0097F6"/>
<stop offset="1" stop-color="#3940DC"/>
</linearGradient>
<linearGradient id="paint11_linear" x1="17.938" y1="35.4772" x2="13.1927" y2="36.0357" gradientUnits="userSpaceOnUse">
<stop stop-color="#0097F6"/>
<stop offset="1" stop-color="#3940DC"/>
</linearGradient>
<linearGradient id="paint12_linear" x1="24.5903" y1="35.4772" x2="19.845" y2="36.0357" gradientUnits="userSpaceOnUse">
<stop stop-color="#0097F6"/>
<stop offset="1" stop-color="#3940DC"/>
</linearGradient>
<linearGradient id="paint13_linear" x1="31.2427" y1="35.4772" x2="26.4973" y2="36.0357" gradientUnits="userSpaceOnUse">
<stop stop-color="#0097F6"/>
<stop offset="1" stop-color="#3940DC"/>
</linearGradient>
<linearGradient id="paint14_linear" x1="37.8948" y1="35.4772" x2="33.1494" y2="36.0357" gradientUnits="userSpaceOnUse">
<stop stop-color="#0097F6"/>
<stop offset="1" stop-color="#3940DC"/>
</linearGradient>
<linearGradient id="paint15_linear" x1="44.5471" y1="35.4772" x2="39.8018" y2="36.0357" gradientUnits="userSpaceOnUse">
<stop stop-color="#0097F6"/>
<stop offset="1" stop-color="#3940DC"/>
</linearGradient>
<linearGradient id="paint16_linear" x1="49.2988" y1="34.6691" x2="46.4673" y2="34.7973" gradientUnits="userSpaceOnUse">
<stop stop-color="#0097F6"/>
<stop offset="1" stop-color="#3940DC"/>
</linearGradient>
<linearGradient id="paint17_linear" x1="49.2987" y1="29.11" x2="47.4492" y2="29.1505" gradientUnits="userSpaceOnUse">
<stop stop-color="#0097F6"/>
<stop offset="1" stop-color="#3940DC"/>
</linearGradient>
</defs>
</svg>
