<svg width="194" height="104" viewBox="0 0 194 104" fill="none" xmlns="http://www.w3.org/2000/svg">
<g clip-path="url(#clip0)">
<g clip-path="url(#clip1)">
<path d="M25.131 36.6337C7.48578 41.3617 -3.25892 59.6045 1.46916 77.2499C6.19723 94.8953 24.691 105.572 42.3362 100.844C59.9814 96.1165 70.408 77.6901 65.6799 60.0447C60.9519 42.3992 42.7761 31.9057 25.131 36.6337Z" fill="#FEDB41"/>
<path d="M65.6802 60.0446C70.4082 77.6901 59.9816 96.1164 42.3364 100.844L25.1312 36.6337C42.7763 31.9057 60.9521 42.3992 65.6802 60.0446Z" fill="#FFCC33"/>
<path d="M27.1472 44.1585C13.6777 47.7676 5.38477 61.7644 8.99387 75.2337C12.603 88.7031 26.8505 96.929 40.32 93.3198C53.7894 89.7107 61.7643 75.5303 58.1552 62.061C54.5462 48.5916 40.6167 40.5493 27.1472 44.1585Z" fill="#FEA832"/>
<path d="M58.1552 62.0608C61.7642 75.5302 53.7893 89.7106 40.3198 93.3197L27.1471 44.1583C40.6166 40.5492 54.5461 48.5915 58.1552 62.0608Z" fill="#FE9923"/>
<path d="M36.9584 65.7245L35.0772 66.2286L33.0609 58.7039L34.9421 58.1998C35.9957 57.9175 37.045 58.5234 37.3274 59.5769C37.9927 62.06 41.755 61.0519 41.0897 58.5688C40.2529 55.446 37.057 53.6007 33.934 54.4375L32.0528 54.9415L31.5488 53.0604C31.2161 51.8187 30.1041 51.4312 29.1635 51.6832C28.2229 51.9353 27.4537 52.8268 27.7864 54.0685L28.2905 55.9497L26.1585 56.5209C23.0355 57.3577 21.1904 60.5538 22.0271 63.6766L23.0353 67.439C23.872 70.5619 27.068 72.4071 30.191 71.5703L32.323 70.9991L34.4064 78.7746L32.2744 79.3459C31.2208 79.6282 30.1715 79.0223 29.8892 77.9687C29.2238 75.4857 25.4615 76.4938 26.1268 78.9769C26.9636 82.0997 30.1595 83.945 33.2825 83.1082L35.4145 82.5369L35.9186 84.4181C36.2513 85.6598 37.3632 86.0473 38.3038 85.7952C39.2444 85.5432 40.0136 84.6517 39.6809 83.41L39.1769 81.5288L41.058 81.0248C44.181 80.188 46.0262 76.9919 45.1894 73.8691L44.1141 69.8559C43.2773 66.733 40.0814 64.8877 36.9584 65.7245ZM31.3148 67.2367L29.1828 67.808C28.1293 68.0903 27.0799 67.4844 26.7976 66.4309L25.7895 62.6685C25.5072 61.6149 26.113 60.5656 27.1666 60.2833L29.2986 59.712L31.3148 67.2367ZM41.427 74.8772C41.7093 75.9308 41.1035 76.9801 40.0499 77.2624L38.1687 77.7665L36.0853 69.9909L37.9665 69.4869C39.0201 69.2046 40.0694 69.8104 40.3517 70.864L41.427 74.8772Z" fill="#FEDB41"/>
<path d="M36.9582 65.7245L35.077 66.2286L33.0607 58.7039L34.9419 58.1998C35.9955 57.9175 37.0448 58.5233 37.3272 59.5769C37.9925 62.06 41.7548 61.0518 41.0895 58.5688C40.2527 55.4459 37.0568 53.6007 33.9338 54.4375L32.0526 54.9415L31.5486 53.0603C31.2159 51.8186 30.1039 51.4312 29.1633 51.6832L38.3036 85.7952C39.2442 85.5432 40.0134 84.6517 39.6807 83.41L39.1767 81.5288L41.0578 81.0247C44.1808 80.1879 46.026 76.9919 45.1892 73.869L44.1139 69.8559C43.2771 66.733 40.0812 64.8877 36.9582 65.7245ZM41.4268 74.8772C41.7091 75.9307 41.1033 76.9801 40.0497 77.2624L38.1685 77.7665L36.0851 69.9909L37.9663 69.4869C39.0199 69.2046 40.0692 69.8104 40.3515 70.864L41.4268 74.8772Z" fill="#FFCC33"/>
</g>
<g clip-path="url(#clip2)">
<path d="M169.287 37.3154C151.642 32.5874 133.215 43.0138 128.487 60.6592C123.759 78.3046 134.437 96.7982 152.082 101.526C169.727 106.254 187.97 95.5099 192.698 77.8644C197.426 60.219 186.932 42.0434 169.287 37.3154Z" fill="#FEDB41"/>
<path d="M192.698 77.8644C187.97 95.5099 169.727 106.254 152.082 101.526L169.287 37.3154C186.933 42.0434 197.426 60.219 192.698 77.8644Z" fill="#FFCC33"/>
<path d="M167.271 44.8435C153.802 41.2331 139.623 49.2074 136.015 62.6771C132.407 76.1468 140.634 90.3957 154.103 94.0061C167.572 97.6166 181.567 89.3242 185.175 75.8545C188.783 62.3848 180.74 48.4539 167.271 44.8435Z" fill="#FEA832"/>
<path d="M185.174 75.8484C181.564 89.3177 167.568 97.6109 154.098 94.0017L167.271 44.8403C180.74 48.4495 188.783 62.379 185.174 75.8484Z" fill="#FE9923"/>
<path d="M164.985 68.4224L163.104 67.9183L165.12 60.3936L167.001 60.8977C168.055 61.18 168.66 62.2293 168.378 63.2829C167.713 65.7659 171.475 66.7741 172.14 64.291C172.977 61.1681 171.132 57.9721 168.009 57.1353L166.128 56.6313L166.632 54.7501C166.965 53.5084 166.195 52.6169 165.255 52.3648C164.314 52.1128 163.202 52.5003 162.87 53.742L162.366 55.6231L160.234 55.0519C157.111 54.2151 153.915 56.0603 153.078 59.1832L152.07 62.9456C151.233 66.0685 153.078 69.2645 156.201 70.1013L158.333 70.6726L156.25 78.4481L154.118 77.8768C153.064 77.5945 152.458 76.5452 152.741 75.4916C153.406 73.0086 149.643 72.0004 148.978 74.4835C148.141 77.6063 149.987 80.8024 153.11 81.6392L155.242 82.2104L154.737 84.0916C154.405 85.3333 155.174 86.2248 156.115 86.4768C157.055 86.7289 158.167 86.3414 158.5 85.0997L159.004 83.2186L160.885 83.7226C164.008 84.5594 167.204 82.7141 168.041 79.5913L169.116 75.5781C169.953 72.4552 168.108 69.2592 164.985 68.4224ZM159.341 66.9102L157.209 66.3389C156.156 66.0566 155.55 65.0073 155.832 63.9537L156.84 60.1913C157.123 59.1378 158.172 58.5319 159.225 58.8142L161.357 59.3855L159.341 66.9102ZM164.278 78.5831C163.996 79.6367 162.947 80.2426 161.893 79.9603L160.012 79.4562L162.095 71.6807L163.977 72.1847C165.03 72.467 165.636 73.5164 165.354 74.57L164.278 78.5831Z" fill="#FEDB41"/>
<path d="M164.985 68.4223L163.103 67.9182L165.12 60.3935L167.001 60.8976C168.054 61.1799 168.66 62.2292 168.378 63.2828C167.713 65.7658 171.475 66.774 172.14 64.2909C172.977 61.168 171.132 57.972 168.009 57.1352L166.128 56.6312L166.632 54.75C166.964 53.5083 166.195 52.6168 165.255 52.3647L156.114 86.4767C157.055 86.7288 158.167 86.3413 158.5 85.0996L159.004 83.2184L160.885 83.7225C164.008 84.5593 167.204 82.714 168.041 79.5912L169.116 75.578C169.953 72.4551 168.108 69.2591 164.985 68.4223ZM164.278 78.583C163.996 79.6366 162.947 80.2425 161.893 79.9602L160.012 79.4561L162.095 71.6806L163.976 72.1846C165.03 72.4669 165.636 73.5163 165.354 74.5699L164.278 78.583Z" fill="#FFCC33"/>
</g>
<g clip-path="url(#clip3)">
<path d="M110.713 4.11713C83.9126 -3.06401 55.9253 12.7721 48.7441 39.5728C41.5629 66.3736 57.7804 94.4626 84.5808 101.644C111.381 108.825 139.09 92.5058 146.271 65.705C153.452 38.9043 137.513 11.2983 110.713 4.11713Z" fill="#FEDB41"/>
<path d="M146.271 65.7048C139.09 92.5056 111.381 108.825 84.5809 101.644L110.713 4.11694C137.513 11.2981 153.452 38.9041 146.271 65.7048Z" fill="#FFCC33"/>
<path d="M107.651 15.546C87.1926 10.0642 65.6548 22.1772 60.1731 42.6351C54.6914 63.0931 67.1851 84.7331 87.6432 90.2148C108.101 95.6965 129.36 83.1005 134.842 62.6426C140.324 42.1847 128.109 21.0277 107.651 15.546Z" fill="#FEA832"/>
<path d="M134.842 62.6428C129.36 83.1007 108.101 95.6967 87.6433 90.215L107.651 15.5461C128.109 21.0279 140.324 42.1848 134.842 62.6428Z" fill="#FE9923"/>
<path d="M104.178 51.3641L101.321 50.5985L104.383 39.1696L107.24 39.9352C108.841 40.3639 109.761 41.9577 109.332 43.558C108.321 47.3293 114.036 48.8605 115.046 45.0892C116.317 40.346 113.515 35.4917 108.771 34.2207L105.914 33.4551L106.68 30.5979C107.185 28.7119 106.017 27.3579 104.588 26.9751C103.16 26.5923 101.471 27.1808 100.965 29.0667L100.2 31.9239L96.9616 31.0563C92.2183 29.7853 87.3641 32.588 86.0932 37.3312L84.562 43.0456C83.2911 47.7888 86.0935 52.6431 90.8369 53.9141L94.0751 54.7817L90.9106 66.5916L87.6725 65.7239C86.0722 65.2952 85.152 63.7014 85.5808 62.1011C86.5914 58.3298 80.8769 56.7986 79.8664 60.5699C78.5954 65.3131 81.3979 70.1674 86.1413 71.4384L89.3795 72.3061L88.6139 75.1633C88.1085 77.0493 89.2769 78.4033 90.7055 78.7861C92.1341 79.1689 93.823 78.5804 94.3283 76.6945L95.0939 73.8373L97.9511 74.6028C102.695 75.8738 107.549 73.0711 108.82 68.3279L110.453 62.2325C111.724 57.4893 108.921 52.6351 104.178 51.3641ZM95.6063 49.0673L92.3681 48.1996C90.7678 47.7708 89.8477 46.177 90.2765 44.5768L91.8076 38.8624C92.2364 37.2621 93.8302 36.3419 95.4305 36.7707L98.6686 37.6384L95.6063 49.0673ZM103.105 66.7968C102.676 68.397 101.083 69.3172 99.4823 68.8884L96.6251 68.1228L99.7895 56.3129L102.647 57.0785C104.247 57.5073 105.167 59.1011 104.738 60.7013L103.105 66.7968Z" fill="#FEDB41"/>
<path d="M104.178 51.3637L101.321 50.5981L104.383 39.1692L107.24 39.9348C108.84 40.3636 109.761 41.9574 109.332 43.5576C108.321 47.329 114.036 48.8602 115.046 45.0888C116.317 40.3456 113.515 35.4913 108.771 34.2204L105.914 33.4548L106.68 30.5975C107.185 28.7116 106.017 27.3575 104.588 26.9747L90.7054 78.7858C92.134 79.1686 93.8229 78.5801 94.3282 76.6941L95.0938 73.8369L97.951 74.6025C102.694 75.8735 107.549 73.0708 108.819 68.3276L110.453 62.2322C111.724 57.489 108.921 52.6347 104.178 51.3637ZM103.105 66.7964C102.676 68.3966 101.082 69.3168 99.4822 68.888L96.625 68.1224L99.7894 56.3126L102.647 57.0782C104.247 57.507 105.167 59.1008 104.738 60.701L103.105 66.7964Z" fill="#FFCC33"/>
</g>
</g>
<defs>
<clipPath id="clip0">
<rect width="194" height="104" fill="white"/>
</clipPath>
<clipPath id="clip1">
<rect width="66.4759" height="66.4759" fill="white" transform="translate(-7.09985 45.2699) rotate(-15)"/>
</clipPath>
<clipPath id="clip2">
<rect width="66.4759" height="66.4759" fill="white" transform="translate(137.056 28.6792) rotate(15)"/>
</clipPath>
<clipPath id="clip3">
<rect width="100.967" height="100.967" fill="white" transform="translate(61.7592 -9) rotate(15)"/>
</clipPath>
</defs>
</svg>
