<svg width="24" height="24" viewBox="0 0 24 24" fill="none" xmlns="http://www.w3.org/2000/svg">
<path fill-rule="evenodd" clip-rule="evenodd" d="M23.4126 20.5764L18.1988 15.3626C18.1711 15.3349 18.1385 15.3155 18.1096 15.2897C19.1355 13.7335 19.7343 11.8706 19.7343 9.8673C19.7343 4.41775 15.3166 6.10352e-05 9.86714 6.10352e-05C4.41769 6.10352e-05 0 4.41775 0 9.8672C0 15.3166 4.41759 19.7343 9.86705 19.7343C11.8705 19.7343 13.7332 19.1356 15.2895 18.1097C15.3153 18.1385 15.3345 18.171 15.3622 18.1987L20.5762 23.4127C21.3595 24.1958 22.6293 24.1958 23.4126 23.4127C24.1958 22.6295 24.1958 21.3596 23.4126 20.5764ZM9.86714 16.3137C6.30672 16.3137 3.42053 13.4275 3.42053 9.8672C3.42053 6.30678 6.30682 3.42059 9.86714 3.42059C13.4274 3.42059 16.3137 6.30688 16.3137 9.8672C16.3137 13.4275 13.4274 16.3137 9.86714 16.3137Z" fill="#00436B"/>
<circle cx="9.84961" cy="9.95001" r="7.75" fill="#F9FDFF"/>
</svg>
